<svg width="13" height="14" viewBox="0 0 13 14" fill="none" xmlns="http://www.w3.org/2000/svg">
<g clip-path="url(#clip0_47_283)">
<path d="M6.40112 4.78298L8.26206 6.78707L8.27093 6.6821C8.27093 5.62914 7.47634 4.77344 6.4986 4.77344L6.40112 4.78298Z" fill="black"/>
<path d="M6.49849 3.50069C8.12903 3.50069 9.45237 4.92583 9.45237 6.6818C9.45237 7.09216 9.37558 7.48343 9.24266 7.84289L10.9707 9.70383C11.8627 8.90219 12.5658 7.86517 13 6.6818C11.975 3.88881 9.45534 1.91016 6.49852 1.91016C5.67142 1.91016 4.8798 2.0692 4.14429 2.3555L5.42036 3.72654C5.75411 3.58658 6.11744 3.50069 6.49849 3.50069Z" fill="black"/>
<path d="M0.590766 1.76723L1.93773 3.21781L2.20654 3.5073C1.23177 4.32803 0.460804 5.41915 0 6.68203C1.02205 9.47502 3.54465 11.4537 6.49853 11.4537C7.41424 11.4537 8.28858 11.2628 9.08909 10.9161L9.34018 11.1865L11.0623 13.0442L11.8155 12.2362L1.344 0.956055L0.590766 1.76723ZM3.85777 5.28235L4.77051 6.26531C4.74393 6.40211 4.72621 6.53888 4.72621 6.68203C4.72621 7.73498 5.52079 8.59068 6.49853 8.59068C6.63146 8.59068 6.75848 8.5716 6.88254 8.54297L7.79529 9.52592C7.40242 9.73588 6.96526 9.86313 6.49853 9.86313C4.86799 9.86313 3.54465 8.43799 3.54465 6.68203C3.54465 6.17942 3.66281 5.70861 3.85777 5.28235Z" fill="black"/>
</g>
<defs>
<clipPath id="clip0_47_283">
<rect width="13" height="14" fill="white"/>
</clipPath>
</defs>
</svg>
