<svg width="13" height="13" viewBox="0 0 13 13" fill="none" xmlns="http://www.w3.org/2000/svg">
<path d="M8.53125 6.5C8.53125 7.03872 8.31724 7.55538 7.93631 7.93631C7.55538 8.31724 7.03872 8.53125 6.5 8.53125C5.96128 8.53125 5.44462 8.31724 5.06369 7.93631C4.68276 7.55538 4.46875 7.03872 4.46875 6.5C4.46875 5.96128 4.68276 5.44462 5.06369 5.06369C5.44462 4.68276 5.96128 4.46875 6.5 4.46875C7.03872 4.46875 7.55538 4.68276 7.93631 5.06369C8.31724 5.44462 8.53125 5.96128 8.53125 6.5V6.5Z" fill="black"/>
<path d="M0 6.5C0 6.5 2.4375 2.03125 6.5 2.03125C10.5625 2.03125 13 6.5 13 6.5C13 6.5 10.5625 10.9688 6.5 10.9688C2.4375 10.9688 0 6.5 0 6.5ZM6.5 9.34375C7.25421 9.34375 7.97753 9.04414 8.51083 8.51083C9.04414 7.97753 9.34375 7.25421 9.34375 6.5C9.34375 5.74579 9.04414 5.02247 8.51083 4.48917C7.97753 3.95586 7.25421 3.65625 6.5 3.65625C5.74579 3.65625 5.02247 3.95586 4.48917 4.48917C3.95586 5.02247 3.65625 5.74579 3.65625 6.5C3.65625 7.25421 3.95586 7.97753 4.48917 8.51083C5.02247 9.04414 5.74579 9.34375 6.5 9.34375V9.34375Z" fill="black"/>
</svg>
