<svg width="35" height="35" viewBox="0 0 35 35" fill="none" xmlns="http://www.w3.org/2000/svg">
<path d="M32.6762 17.063C32.6762 25.3045 26.0356 31.9932 17.8369 31.9932C9.63815 31.9932 2.99756 25.3045 2.99756 17.063C2.99756 8.81408 9.63815 2.13281 17.8369 2.13281C26.0356 2.13281 32.6762 8.81408 32.6762 17.063Z" fill="#283544"/>
<path d="M24.7924 13.2848C24.7114 13.3324 22.7838 14.3354 22.7838 16.5593C22.8746 19.0956 25.2164 19.985 25.2565 19.985C25.2164 20.0326 24.903 21.1967 23.9747 22.417C23.238 23.4681 22.4203 24.528 21.1787 24.528C19.9976 24.528 19.5736 23.8274 18.2108 23.8274C16.7473 23.8274 16.3332 24.528 15.2127 24.528C13.971 24.528 13.0928 23.4114 12.3159 22.3701C11.3066 21.0072 10.4488 18.8684 10.4185 16.8149C10.3981 15.7267 10.6206 14.657 11.1855 13.7484C11.9828 12.48 13.4061 11.6189 14.9605 11.5905C16.1515 11.5529 17.2114 12.3571 17.9383 12.3571C18.6348 12.3571 19.937 11.5905 21.4104 11.5905C22.0464 11.5911 23.7423 11.7707 24.7924 13.2848ZM17.8375 11.3732C17.6255 10.3795 18.2108 9.38571 18.7559 8.7518C19.4525 7.98518 20.5526 7.46484 21.5013 7.46484C21.5619 8.45861 21.178 9.43324 20.492 10.1431C19.8765 10.9097 18.8165 11.4868 17.8375 11.3732Z" fill="white"/>
</svg>
