<svg width="14" height="13" viewBox="0 0 14 13" fill="none" xmlns="http://www.w3.org/2000/svg">
<path d="M1.59422 0.676758H11.9974C12.609 0.676758 13.1067 1.34703 13.1067 2.1709V10.8297C13.1067 11.6535 12.609 12.3238 11.9974 12.3238H1.59422C0.982529 12.3238 0.484879 11.6535 0.484879 10.8297V2.1709C0.484879 1.34703 0.982529 0.676758 1.59422 0.676758ZM1.739 1.67285L1.88706 1.8389L6.35565 6.85061C6.6107 7.13663 6.98092 7.13663 7.23592 6.85061L11.7045 1.8389L11.8526 1.67285H1.739ZM12.3671 2.39196L8.72623 6.47539L12.3671 9.73902V2.39196ZM1.59422 11.3277H11.9974C12.176 11.3277 12.3255 11.1561 12.3597 10.9289L8.13325 7.14041L7.70914 7.61608C7.44453 7.91285 7.12013 8.06123 6.79576 8.06123C6.47139 8.06123 6.14702 7.91285 5.88238 7.61608L5.45827 7.14041L1.23183 10.9289C1.2661 11.1562 1.41554 11.3277 1.59422 11.3277ZM1.22444 9.73902L4.86534 6.47542L1.22444 2.39196V9.73902Z" fill="black"/>
</svg>
